<svg xmlns="http://www.w3.org/2000/svg" version="1.1" id="Layer_1" x="0" y="0" viewBox="0 0 462 245.2" xml:space="preserve"><style>.st0{fill-rule:evenodd;clip-rule:evenodd}.st0,.st1{fill:#efefef}</style><path class="st0" d="m364.6 52.8-.3 1 .9.7 1.1-.7-.4-1.3zm-89.9 28.5 1.7 1.4.8-1.3.3-1-1-.6-1.1-.2zm-3.3 4.1.5.7 1.9-1.2-.4-1.2h-1.2l-.7 1zm42.4-17.8 2.9.3.1 1.5-1.1.3-1.3-.8zm7.6-4.8.5 2.3h1.2l.2-2.1-1.2-1zm2.6 1.9v2.7l3-.7 2.7-1.4-.9-2.1-1.8-.3-1.4-.3-1 1.5zm1-14.7.9 1.9 5.6.1 1.6-3.1-1-2.3-1.2 1.3-2.4-.1-.6 1h-1.2l-.2 1.3zm-2.2-9.4-.4 1.4 1.1.2.5-1.2zm-3 12.2 1.3 2 2.4.5.1-2.8-.8-1.4-2.9-.2-1.5 1.1-2.4-.4-.1 1.6 1.3 1.4-.7.9-2.2-1.8-2.7.2-.1 2.1.2 2.2 1.2 1.6.4 1.7 2.5.6 2.2-.1-.1-2.4 1.6.2 1.3-2.1 1.5.3 1-1.1-1-1.1-2.2-.6-1.8-2zM308.7 58l.4 1.8 1.5 1.7.9-.4-1.1-2zm65.2-3.7-.8 1.5-4.1 2.3-3-2.8-2.9-.3-4.3 2.7-2.9 3.6-1.1 3.7-1.9.6-2.4-1.2-2.3.2-1.2 1.6-1-.9-1 1-1.2-1.1 1.7-1.7-4-.3-2.3 2 1.2 4.3-2.3 2.3v-3.4h-1.6l-1.5 1.4-.4-1.7 2.3-2.1-2.4.2-7.4 3.7 1.4 1.7-2 2.1.8 1.4 1.5-.7.1 2.2 1.8 2.1-2.7.6-.9 1.1.8 1.8-2.3.4-3-.9-.8 3.4-5.1-.9v7.5l-3.6-.6-5.5-5.1 2-1.4-3.4-5-2.2-1-3.2 1.1-3.7-1.4-.5 5.6-6.7 2.9-2.5-1.7.4-1.4H281l-1.8 2.3-.5 1.6-.4-2.3-1.3-1.1-1.5 1.6-2 1-.2 1.4 1 1.3v.1l.5 2.2 3.2 4.6v3l1.6 2 .1.1-.1.1-3.7 2.9-.2 1.8h-.1l-.8 1.3-.7 3.2v.1h-.1l-1.9-.2-2.9 2.4h-.1l-.9.5 2.3 3.6v.1l.8 10v.1l-2.1 2.3 1.4 1v.2l-.5 2.6 1.2 1.3v2l1.4 1h.1v.1l-.7 1.8v.1l-2.1 2.6-.3 1.8h3.6l1.5 1.2 1.6-1 .1-.1.1.1.9 1.1.1.1 1.2 1.8.1.1-.1.1-1.4.9v1.6l1.5.1 1.2-.9.2-.1.1.2 1.5 2.9v.1l-.1 3.5 2 1.1.1.1-.1.1-.9 3.7 1.2 2.4 2.5.8h.1v.2l-2 4.5-.3 5.5 1.9 2.1 2.1-1.6h.1l3.1-.2 1.1-2 .1-.1.1.1 1.7 1.7 2.2-2.6 3.5-7.4v-.1h.1l2.3-.4h.1l4.5 1.8.1.1 1 3 2.7-1.3.1.1 1.7 1.1v.1l3.1 6.9 3.9 7.3 2.5-1.7 2.6-1v-.1l.1.1 2 1.6 1-.9.1-.1.1.1 1.6 1.4 1.5-1.4v-.1h.1l3.6.1v.1l2.3 1.7 4.4-1.6h.2l1.4 1.2 6.1-2.7.1-.1 1.8.4 1.9-.7-.2-1.4-.1-.1.1-.1 4.8-2.4-1.2-3.4h-.1l.1-.1 1.6-1.7-.7-1.6-3-2-.1-.1.1-.1 1.5-3.1-2.9-2-.1-.1.1-.1 1.3-1.6v-6.9h.1l5.8-2.2.3-2.6v-.1l.1-.1 3.4-.2.8-2.1-.1-2.2v-.1h.1l1.6-.8-1.2-4.4-2.3-1.7h-.1v-.1l1.5-5.4-2.1-5.6.1-.1 1.1-1.5.1-.1h.1l4.1 1.4 2.6-.5.9-1.6v-.1h.1l3-.5.6-1.9-5.1-10.7.5-2.7 3.5-2.5-1.3-2.5-.1-.1h.1l3.3-3.1.1-.1 3-.3 1.7-1.9.3-3.3-1.9-1.7-.1-.1-.1-2.2-1.2-1.8-.1-.1.1-.1 1.5-1.4-1.6-1.9-.1-.1h.1l3.8-3.6h.1l1.7-.7 1.3-1.9-2.4-5h-3.1V72l-2.4-1h-.1v-.1l-1.2-3.2v-.1l4.9-5.7v-2.8zm7.5-37.2 3.3 3.8.7-.7.9-4.4 1-2-1.2-1.6-2.9.2-1.8 2.7z"/><path class="st0" d="m431.2 55.5-.8-8.1-2.2-1.2 5.3-3.7-.7-2.5-9.9-.8-1.2 1.6-2.7.2-.3 2.1-2.2-.1v-3l2.5-.8 1-2-.5-5.3-1-.4-1.2.8-.1-2-2.3.9-1.6-1.8.6-2.9 2 1.7 1.1-.9 1.6 1.8 1-2.2-.2-2.7 1.8-1.5 3.1.3 5.2-4-1.2-1.5 2.6.4-.1-2.5-2.8.5-.9-1.8-3.8-.7 1.5-1.9-1.9-1.4 1.8-1.3-2.3-2.9-6.3 3.7-.4 3.1-1.7 2.2 4.3 1.7-2.4 1.1-6.8-1.9-8 5.3-12 6.5-3.2 5.3.3 1.5-2.2.6-3 2.8 2.1 2.7 2-.6 2.9 1.6-.3 2.9-2.7.3-1.8 1.1-3.8-2.4v4.9l-3.9 2.9-1.5 2.9 6.5 4.8V62l-4.8 5.7 1.2 3.1 2.3 1h3.2v.1l1.2 2.5 2 .3h.1v.1L387 77l2.7-1.2.1-.1 2.5.9 2-1.8 3-.2 2.2-2.3-.4-2.2v-.2h.1l2.2-.7.6-2.1V67h.1l1.9-.2.6-1.8v-.1h.1l3.5-.8.9-1.6v-.1h.1l5.2-.3h.1l.1.1 1.2 3.3 3.6-1.1 4 .1 3.2-9.2v-.1l.2.1 1.9 1zm24.4 41 1.2 1.2 2.2-1.9-1-.2zm-9.7 49.1.1.8 1.2.8.5-1.4-.6-1zm3.5-1.7-.1.8 1.2.5.6-.7-1.2-1.1zm-.7 1.8-.3 3.5 1.3 1.7 1.3-.6-.3-3.4-1-.9zm1.9 7.7-.2 1.2.6 1.3 1.6-.7.2-.8zm2 10.1-.6 1.1.9 1.3 1.1-1-.7-1.3zm.1 6.4.6 1 .9-.3.2-1.6-1.1-.3zm.8 2.5-.9 1 .7 1.9 2.1-.6-.7-1.9zm-1.4 7.9-1 1v2.2l.1 2.3v1h1.1l.9-2.5-.2-2.6zm-3.1 8.5 1.1.1.3 1.4-.8 1.2-1 1.5-.1 1.7-.3 2-.2 1.5-.5-.2-.4-2.7-.1-3.3 1.3-1.4.8-.7zm-4 17.8.6-.3.2-3.9.7-.7.1-1-.7-.5-1.1.5-.6.5.5 1.7-.2 2.2zm4.1-3.9.4.8 1.1-.4-.2-1.2-.6-.8-.7.6zm-21-113.9-.9 2.6 3.3 3.7.5-5.3-1.8-.8zm21.8 9.8.9 1.3 3.3.5 1.3-.7-.8-1.4-2.4-.3z"/><path class="st0" d="m389.7 128 2-1.3 1.4-1.1 1.9-.5-.6-3.8 3.2-1 2.6-2.3 2.3-.1-1.7 2.5 1.6 1.4 2.4-2.7.6-4.2 2.2-.8 1.7-2.3-1.8-1.3-1.6 1.9-1.6-1.6-.5-7.6-1.4-4.6.5-3.4 2.7-3.9 1.6-.1.8-2.2 3.2 4.4 2.2-.4.1-1.7-.5-3.3-.5-2.4-2.2-1.2-.1-.1-.4-2.1-1.4-1.3-2.2.2h-.1l-.1-.1-1.3-3.5-1.9-.4h-.1V77l-3.1-4.4-2.1 2.2-.1.1-3 .2-1.9 1.7-.1.1-.1-.1-2.5-.8-2.8 1.3-.1.1-.1-.1-1.3-2.3-1.7-.3 1.1 2.4v.1l-1.4 2-1.8.7-3.7 3.5 1.6 1.9v.1l-1.5 1.4 1.2 1.8v.1l.1 2.1 1.9 1.7.1.1-.3 3.5h-.1v.1l-1.7 1.9-.1.1-3 .3-3.2 3 1.3 2.5v.1l-.1.1-3.5 2.5-.5 2.5 5.1 10.5 2.3-1.6h.2l5.2 1.7.1.1.6 3v.1l-1.2 2.3.9 1.9 2.1-1.6h2.9v.1zm4.1 90.6-.3 8.7 1.6 2.7-6.1.5-2 4.4 5.6 5.8.2 2.2 3.1-3 5.4.1 3.9-3.1 2.3-4.7 1.1-12.7 1.6-6.6-1.1-7.8-1.5-.4-.1-.1-.4-1.9-2.5-1.8-2.9 2.1 1.7 1.9 2.7.2h.2v.1l-.7 4.2v.2h-2l.3 2.7v.1h-.1l-2.7 1.9h-.1l-4.5.3-1.2 1.5.9 1.8.1.1-.2.1z"/><path class="st0" d="m391.3 209.2 2 3.2-.7 2.4 1.2 3.5 2.1-.5-.9-1.7.1-.1 1.2-1.6.1-.1 4.5-.3 2.7-1.7-.3-2.8v-.1h.1l2-.1.6-4-2.6-.2h-.1l-1.9-2-.1-.1.1-.1 3.1-2.3.1-.1.1.1 2.7 1.9v.1l.4 1.8 1.3.4.7-8.8-.9-2.8-4.4-8.8-1.4-1.7-1.3-6.2-.8-2.1-.3-.3-3.3-1.3-1.1-1.4 1-1.9-2.4-1-5-.9-3.9 2-1.4 5.9-1.6-2.1-1.9 2.4-1.5-4.5-3.3 2-2.8-.5.2-2.6 3.6-8.9.8-9 1.1-4.3-.9-3.6 1.2-3.2-.5-3.5 7.5-7.4 2.4.5.2-.9-.6-1.1 1-.7-1.3-2.2h-2.6l-2.2 1.6-.1.1-.1-.2-1-2.1h-.1l.1-.1 1.2-2.3-.5-2.8-5.2-1.7-2.3 1.5-.6 2.1v.1h-.1l-3.1.5-.9 1.6h-.1l-2.7.6h-.1l-4-1.4-1.1 1.4 2.1 5.6v.1l-1.5 5.3 2.3 1.6 1.3 4.6.1.1-.1.1-1.7.8.1 2.1v.1l-.8 2.2-.1.1h-.1l-3.4.2-.2 2.6v.1h-.1l-5.8 2.2v6.8l-1.3 1.5 2.9 2.1.1.1v.1l-1.6 3 2.9 1.9.1.1.7 1.8v.1h-.1l-1.5 1.7 1.1 3.2 4.7-2.4h.2l1.5 1.7.1.1h-.1l-2.3 5 .3 2.5-.1.1-1.7 1 .1 1.9h3.9l.1.1 1.7 2.6 2-.1 3.1-2.9.5-2.1v-.1h2.5l.7-1.5.1-.1h.1l1.7.3.1.1 1.5 4.7v.2l-1 1h-.1l-3.8.7.9 2 .1.1h-.1l-1.5 1.7-.4 2.1v.1l-2.3 2.6 1 1.2v.2l-1.5 2v2.4l4 2.1h.1l3.2 4.5 2.1-1.9v-.1l4.4.1h.1l1.9 1.6 5.9-2h.2l-.1.2z"/><path class="st0" d="m374.8 213.2 2.2 3.6 2.4 2.1 5.1-2.5.7-2.1 3.8-4.3 2.1-.9.5-2.2-5.7 1.9h-.1l-1.9-1.6-4.3-.1-2.1 2zm-40.7-13.3 5.1-2.6 3.9 1.4 4.7-.8 6.9 6.8 8.5 8.8 3.4-1.3 2.1 1 1.5-.8 2.8.9 1.5-.2 2.7-4.1-3.2-4.5-4.1-2.1h-.1v-2.7l1.5-2-1-1.2v-.2l2.3-2.7.4-2.1v-.1l1.5-1.6-1-2.1v-.2h.1l4-.6.9-1-1.5-4.6-1.5-.2-.7 1.5h-2.4l-.5 2.1v.1h-.1l-3.2 3h-.1l-2 .1h-.2l-1.7-2.7h-4.1v-.1l-.1-2.2v-.1h.1l1.7-1-.3-2.4h.1l2.2-5-1.4-1.5-9.4 4.9.2 1.5v.1h-.1l-2.1.8-1.8-.4-6.1 2.8-.1.1-.1-.1-1.4-1.2-4.5 1.6-.1.1v-.1l-2.3-1.8-3.5-.1-1.5 1.5-.1.1-.1-.1-1.6-1.5-1 1-.1.1-.1-.1-2-1.6-2.5 1-2.4 1.6 3 2 .2.1-.1.1-.9 1.3 1.4 1.4 2.5-1.4.2-.1v.1l1.2 2.2 2-.5h.2v.1l.2 3.9 2 1.1.2.1-.1.1-1.1 1.6zm66.9-25.5-.1-.2 4.4 2.4 1.4 3.7 2.2 2.8 2.6 4.2 1.8 3 2.2 1.7.7 1.9.6 1.7 2.7 1.3.3 2.7 2.8 3.5.2-3.1-.4-2.3 2.2-.1.8-.4 2 1-1.6-3.4h-2.4l-2.5-1.1-2.9-2.1-1.9-4.8-1.1-3.1 2.3-1.2 4.2-.2-9.4-6.4-6.7-6-3-5.7-4.2-2.9-2-2.5-1.3.6-.3 1.4 2.4 1.7 1.4 2.1-.8.9-1.1-.3-.4 1.7 2.4 1.8 2.4 5.5-.2-.1zm-357.3-33 .6 1.2-.1 2.7 1.9 1.1 1.4.8 1.2-.8.1-.1 1.9.1 2.1-1.2.2-1.5v-.2h.1l2.3.4 1.2-.4.1-.1.1.1.9 1.8 2 .8.4-.5.1-2.2-1.2-1h-.1v-.1l-.1-1.4-.8-.8-1.3-.9v-.1l.1-2.2-2.5-2v-.1l-.3-1.4-.9-.5H53v-1.1l-.4-.6-1.4-.1-.3.6-.1.1-.5.1h-.1l-.1-.1-.4-.5h-.6l-.9.9v1.6l-.6.8.5.3.1.1v1H48l-1-.1-.4.7.3 1.4v.1l-.1.1z"/><path class="st0" d="m38.8 126.3-1.1 1.4-.5.8.2 1.1 1.1.5-.1 1.7 2.8 1.8.1 3.3 2.2 4.2 3.1-3.1-.3-1.4v-.1l.5-.8.1-.1h.1l.9.1v-.6l-.6-.4-.1-.1.1-.1.6-.8v-1.6l-2-2-2.1-.5-1.5-1-.4-1.3-.7-.1-.8.4v.1l-.1-.1z"/><path class="st0" d="m40.7 119.1-1.2.5-.6 1.2-.9.2-.1 1.5 1.3.7-.3 2.8 1.5 1.3.7-.4h.1l.8.2h.1l.1.1.3 1.2 1.4 1 2.1.4 2.1 2.1.9-.8v-.1h.9v.1l.4.5.4-.1.3-.6-1-1.2v-.1l-.1-1.2-1-.3-.1-.1-.2-.6h-.1v-1.1l-.4-.6v-2.2l-3.3-4.3zm4.7-10-2.1-.2-1.5-1.4.2-1.4-1.5-.3-.8 2-3 2.6.3 1.6h1.5l1.2.9.5 2.1 1.3-.1 1.6.3v1l-2 2.6 3.7.1 4.6-3.3-.3-.6-.1-.1v-.8l.1-.1.5-.5h.1l.7-.5v-.6l-1-.1-.5.4-.1.1v-.1l-.9-.4v-.1l-.5-1-.1-.9v-.1l.5-.8-2.2-.2h-.1z"/><path class="st0" d="m51.8 96.4-.3.6-2.5 1.4-1.2 2.1-1.4 2.7-.1 2.3.4 1.3-1 1.2-.1.9.1.1 2.3.1 1-.4h1.9l1-.9.1-.1 1.4.1h.1v.1l.6 2 .5-.3h.1l1 .1.1.1.5.7 2.7-.2 1.6-1.1 1.7-2.5.1-.6-1.2-1.5v-.1l-.2-1.3-3-.5-.1-.1-1.4-1h-.1v-.1l-1.9-3.6-.6-1.4-.6-.3-1.1.3h-.1zm-6.7 22.7 3.2 4.2v2.3l.5.6v1.1l.3.6 1 .3 1.5.1.4-.9h.1l2.8-2.3.3-2.4-1.2-1.1-.7-1.4v-.1l.1-2.3-3.8-2z"/><path class="st0" d="m55 125.3-2.7 2.3-.5.9h-1.6l.1 1.1.9 1.2 1.5.1h.1v.1l.5.7v1l.9.4.1.1.2 1.5 2.5 1.9 1.2-.5.3-.7-.2-1.2-.3-.8h-.1l.1-.1.5-.9 2.1-1 1.2-1.1.1-1.4-.3-.9-1.1-.9v-.1l-.4-.9-1.1-.1-1.6.7h-.1l-1.2-.1H56z"/><path class="st0" d="M62.1 130.1v.3l-1.3 1.2-2.1 1-.5.8.3.7h.1l.2 1.3-.4.9h-.1l-1.2.6-.1 2.1 1.2.9.8.8.1.1.1 1.5 1.2.9 1.9-.3 3.6-1.9.5-.7v-3l.4-2.1v-.1l1.6-1.9-1.3-1.4-.7.5h-.1l-.6.2h-.1l-1-.6h-.1v-.1l-.9-1.6zm-8.4-12.3-.1 2.3.6 1.3 1.3 1.2v.1l-.3 2.4 1 1.2 1.1.2 1.7-.8 1.1.1.1-.6v-.1l.7-1h.1l1.4-1.6v-1.1h.1l.9-.9-.2-1.8-1.1-.7v-.1l-.5-1-2.3.2-.5.6-.1.1h-.1l-2-1.3-.6-.1z"/><path class="st0" d="m62.6 122.7-1.4 1.6-.8.9-.1.7.4 1 1.1.9.4 1v.1l-.1.9 1.6.1h.1v.1l.9 1.7 1 .5.5-.2.9-.5.1-.1.1.1 1.4 1.6 1 .3h.8l2.9-2.6 1.5-1-.3-1-.6-1.6-3-4.9-1.7-.1-.7.6h-.2l-.6-.5-.7-.5-.4.3-1.3.3h-.1l-.7-.3-.5.5H64zm-1-6 .4-.6.7-.9v-2.4l-1-.5h-.1v-.1l-.8-1.3-.3-1.3-1.4.9H59l-2.7.3h-.1l-.1-.1-.5-.7-.9-.1-.6.3-.2.1v-.1l-.6-2.1-1.2-.1-1.1 1h-1.9l-.9.4-.6.9v.8l.5 1 .7.3.5-.3v-.1l.1.1h1.2v.1l.1.9.1.1h-.1l-.9.5-.5.5v.6l.4.7 3.8 2 2.5-1.4h.1l.6.2 1.9 1.1.5-.6h.1z"/><path class="st0" d="m60.8 109.4.2 1.4.8 1.2 1.1.7h.1v2.6l-.7 1-.5.5.5 1 1.1.6.1.1v.1l.2 1.9v.1h-.1l-.9.9v.9l1.3-.1.5-.5h.1l.8.3 1.2-.3.3-.3.1-.1.1.1.8.6.6.4.6-.6h.1l1.8.1.7-1.1.5-1.3-.4-.4-.9-1.1-.7-2.1v-.1l.5-1.4v-.1l1.6-1.7.9-.9.2-1.1-1.2-1.4h-2.9l-3.2-2H66v-.1l.1-1.2-.4-.2-.3.3h-.1l-2.7.4v.3z"/><path class="st0" d="m73.2 112.2-.7.7-1.5 1.7-.5 1.4.7 1.9.8 1.1.5.4v.2L72 121v.1l-.7 1 2.8 4.8 2-1.1.1-.1h2.5l2.8-1.7-.6-1.7-2.7-3.4-1.3-.6h-.1v-.1l-1-1.1-.1-.1.1-.1.7-1 .3-1.2-.6-.7-1.4 1.2-.1-.1-1.3-1.3-.1-.1z"/><path class="st0" d="m76.9 114.3.2.2.1.1h-.1l-.3 1.4v.1l-.7.9.9 1 1.3.6h.1v.1l2.8 3.5.6 1.7.9-.2.6-.9.1-.1 1.7-.1h.1l.6.6 1.1-.6.3-3.6-1.6-.9h-.1v-.1l-.1-1.5-.8-.7-1.2.4h-.1l-4-2.1z"/><path class="st0" d="m81 114.7 2.4 1.2 1.2-.4h.2l.8.8.1.1.1 1.5 1.6.9h.1v.1l-.3 3.7h4.9l.6-.4h1.8l.1.1.4 1.3 1.3.6h.1l1.1 1.1 1.8-1.8.1-.1 4.5.1v-2.8l.1-.1.8-.9-.9-1-2.4.6h-.1l-3.5-2.1h-.1l-2.1-3.9-3.2-2-4.9-.3-1.7 1.2-.1.1h-1.9l-.6.9v.1zm-7.4-4.2 2.1-.9-.3-1v-.1l.7-3.6v-.1h.1l1.9.1 2.3-2.2-.3-2.7h-2.3v.2l-.2-.2-2.5-2.2-1.5.1-.1-.1-1.8-1.4v-.1l-.3-1.3-1.4-.9-.4.3-.3 1.3v.1h-.1l-3.3-.3h-.1v-.1l-1.1-.9-3.2-.9-1.7-1.2-1-.9-.8.8-.5 2.2-1 1.5h-.1l-2.2.5.6 1.3 1.9 3.6 1.3 1 3.1.5h.1v.1l.2 1.4 1.3 1.5v.3l2.6-.3.3-.4.1-.1.1.1.5.3h.1v.1l-.1 1.2 3.1 2 2.9-.1.1.1z"/><path class="st0" d="m87.3 110.9-1.8-1.7-.1-.1.1-.1.7-2.5-1.4-1.7-1.1.1h-.1l-3.1-2-2.3 2.3h-.1l-1.8-.1-.6 3.4.3 1.1.1.1-.1.1-2.3 1-.2 1.1.1 1.7 1.2 1.2 1.3-1.1h.2l.4.4 2.6-.3h.1l1.3.7 2.4-1.5.6-.9h.1l2-.1zm-3.4 53.4v1.7l.9 2.2 1-.2.8-.7 1.5.8-.1 1-.4 1 .5.6 1.5.5.6 2.1.6 2.6-.7 1.6.7 1.4 1.7-1.1.8.3.5 1.1.4 1.9 1.1.8 1.3-.8h1.3l2.4 1.1-.1 1.1.5.9 1.2.2 1-1 1 1 1.4.8-.3 2.1.3 1.2 1.3 1.5 1.2.4 1.1-.7.9.3.6 1.4 2.8.9 1.2-.9 1.2-1.8-2.1-4.6-.2-.1v-.1l-.5-1.4v-.1l1.2-.9.3-.8-.6-1.3-3-.9-1.4.4-.7 1.7v.1l-.1-.1-1.8-.1-.1-.1-1.6-1.6-3-.7h-.1v-.1l-.7-1.2v-.1l.1-.1 1.1-1.2-.7-.8v-1h.1l1.1-.4.1-1.8-1.6.1-.7.5-.2.1v-.2l-.3-2.2v-.1h.1l.7-.3.1-1.3-.7-.8h-.1v-.1l.1-3-.8-1.2v-4.2l-.8-1.8h-.1l.4-1.7-1.1-1.2v.2l-.6 1.8v.1l-.4.8h-.1l-3.1 1.8-.8 1.5h-.1l-2.2.7-1.1.2-2.3 1.9v.1l-3.3.2zM68.2 163l1.5 1.4-.2 1.5-.3 1.2.8 1.5 1.6-.8.8-1.6 1-1.1 2.3.5 1.3-1 .9-.1.7.5 2.3-.1 1.7-.5 1.1-.3h.1V163l-.1-.8-1.1-1.7v-.1l.1-2-1.3-1.6-.5-1.9v-1.1l-1.1-.3-3.2-1.7-.1-.1v-1.8l-3.1-.5h-.1l-3.2-2H70v-1.2l-.5-.8-1.6-.1-.1-.1-2.3-3.7-3.1 1.6h-.1l-1.8.4-.1 2.2v.1h-.1l-.5.5.2 1.8.9 1.2 1.4.3h.1l2.5 2.5v2l-1.1 1.3-.1 1.2h.9l1.1-.4.2-.1v2.2l.7.9 1.5.3h.1v.1z"/><path class="st0" d="M81.2 153.8v1.1l.5 1.8 1.3 1.6v.1l-.2 2 1.2 1.7.1.9v.9l3.1-.2 2.2-1.9v-.1h.1l1.1-.1 2.2-.7.7-1.5h.1l3.2-1.8.4-.7.5-1.9.2-.8-1.6-2.3-.6-.6-.8.5-.6.1-.1.1-.1-.1-1.3-1.9-.4.3-1.6 1.7v.1l-1 .5h-.1l-1.2-.3-1.8-1.6-1.3-.9-1.1.1-1.9.2-.8 1.1v.5l.6.3h.1v.1l-.3 1.3-.1.1z"/><path class="st0" d="M76.8 149.9v1.7l3.1 1.6 1.1.4.8-.3.2-1.1-.6-.3h-.1v-.8h.1l.8-1.2h.1l1.9-.3 1.2-.1h.1l1.3 1 1.8 1.6 1.2.3.8-.6 1.6-1.7h.1l.4-.3-1.2-1.4-.1-.1.1-.1.5-.6-.1-1.3-2.4-.2h-.1l-1.4-2-1.7-.1h-.1l-.1-.1-.6-1.5-1.9-2.3-.3.3-.3 1.7v.1l-.4.6-.1.1h-.1l-2.9-1v3.1l-.6.7.5 1v.2l-.2.7h-.1z"/><path class="st0" d="M70.5 133.7h-.9l-.9-.3-1.6 1.9-.4 2v3.2l-.6.7-.4.2L68 145l1.6.2h.1l.6.9v1.1l3.2 1.9 3.1.6 2.3-2.2.2-.7-.5-1.1-.1-.1h.1l.6-.8v-3l-1.1-.1H78v-.1l-.8-1.6-1.8-.4-.6.5-.1.2-.1-.2-1.1-1.8v-.1l-.2-2h-1.9l-.1-.1z"/><path class="st0" d="m75.1 130-1.5 1.1-2.9 2.5.9 2.3h2v.1l.2 2.2 1 1.6.5-.4v-.1l.1.1 1.9.3h.1v.1l.8 1.6 1 .1h.2l3 1.1.4-.5.3-1.7v-.1l.4-.5.6-1 .1-.7-.9-.5v-.1l-.2-.9-.5-.3-.2.5h-.1v.1h-2.1l-.2.6v.1h-.1l-1.1-.2-.1-.1-1-2-.3-3zm9.3 8.1v.8l-.6 1 1.9 2.3.1.1.2.6 1.5-.4 1.9-.2.2-1.5v-.1h.1l1-.6 1.9-.5.2-1.6-.5-2.9-3.7-1.2-2.2.6-.2 2.2v.1z"/><path class="st0" d="m74.3 127.2.5 1.5.4 1 2.4 2.5.3 3 1 1.9.9.2.2-.6h.1l2.1-.1.3-.5v-.1h.2l.6.4h.1v.1l.1.9.8.4 1.7-1.2.2-2.2v-.1h.1l2.1-.7.1-3.2v-.1h.2l1.9-.1 1.1-.9h.1l2.2 1.4 1.6-2.4.1-.1.1.1 2 1.4 1.4-.6.6-.7-1.2-1.5-2.4-2.5-1.4-.6v-.1l-.5-1.2h-1.5l-.5.4h-.1l-5.1-.1-1.2.7-.1.1-.1-.1-.6-.6-1.6.1-.6.9h-.1v.1l-1.1.2-2.9 1.7-2.5.1z"/><path class="st0" d="m93.9 130.9-2.1-1.3-1 .8-.1.1-1.9.1-.1 3 3.8 1.3h.1v.1l.5 3-.2 1.5 1-.4h.1l3.1-.4h.1l2.2.7h.1l.7 1.2 1.1-1-.1-2.5-.5-1.2-1.5-1.7-3.9-.7h-.1v-.1l-.9-.7v-.1z"/><path class="st0" d="m101.3 139.9-1.1 1-.1.2-.1-.2-.7-1.3-2.2-.6-3.1.4-1.1.5h-.1l-2 .5-.9.5-.2 1.5-.1.1h-.1l-2 .3-1.4.4.3.6h1.7v.1h.1l1.4 2 2.4.1h.1v.1l.2 1.5v.1h-.1l-.4.6 1.1 1.4v-.1l.1.2 1.3 1.9.5-.1.8-.6.1-.1.1.1.7.7h.1l1.6 2.4v.1l-.1.4 1.3 1.4v.1l-.4 1.7.8 1.7h.3l.5-1.1.6-1.4.1-.1h.1l1 .1h.1l1.3.9.4-.5-.3-1.5-.9-1h-.1v-.1l.2-1.5.1-.2.1.1 2.5.3 2.1-.7.3-1.7-.8-.1v-.1l-.5-.5-.1-.1.1-.1 1.1-.8v-.4l-.9-.1h-.1v-.1l-.2-.6v-.1h.1l.5-1-.3-.3-1.9 1v.1h-.1l-2.2-.5-1-1.5v-.1l-.5-1.7-.1-.1z"/><path class="st0" d="m101.9 144.9.3.8.9 1.4 2 .5 1.9-1 .1-.1.1.1.5.3.1.1-.1.1-.6 1.1.1.4 1 .2h.2l-.1.1v.6l-.1.1-1 .7.3.4.8.1h1.3l1.3-1.1.1-3v-.2h.1l1.2.1 1.3-1.4.7-2h.1l1.2-1.3 1.4-3.6-.7-.5v-.1l-.9-.9-1.1.2h-.1l-1.4-1.4-2.3-.1v.8l-.2 1.1v.1l-1.6 1.3-.1.1h-.1l-1.2-.6-1-.1-1.1 3.7v.1h-.1l-2.2.3z"/><path class="st0" d="m111.1 149.9-1.3 1.2h-1.4l-.2 1.8v.1h-.1l-2.2.7h-.1l-2.4-.3-.2 1.4 1 .9v.1l.3 1.6v.1h-.1l-.4.6-.1.1h-.1l-1.4-.9-1-.1-.5 1.3-.6 1.2v.1h-.5v3.9l.9 1.2-.1 3.1.7.8h.1v.1l-.1 1.4v.1h-.1l-.7.3.2 1.8.6-.4h.1l1.7-.1h.2v.2l-.1 2.1v.1h-.1l-1.1.3-.1.6.8.9.1.1-.1.1-1.2 1.2.6 1.2 3 .6.1.1 1.6 1.6 1.6.2.7-1.7h.1v-.1l1.4-.3.2-1.3.2-1.3v-.1h.1l1.8-.4.2-1.5 1.5-2.5v-.1l2.5-1.4h.2l1.2.6h.6l.4-1.6h.1l1.3-.4.7-.6-1-1-.6.3-.9.5h-.1l-3.9-1.3h-.1v-.1l-.9-.7-1.1-2.4v-.1l.5-1.4v-.1l1.9-1.1h.1l1 .1h.1l.9 1.1v1.9l.8.6 1-.4v-.1l1 .1v.1l.6.4 1.4 1.4.7-.4.5-.9-.9-1.2-.2-1h.1l.9-1.7.2-1.4-.8-.1-2.6-1.1-1.1-.9v-.1l-.4-1.2-1.1.2-.1.1v-.1l-.5-.7-.2-1.1-.2-.7-1.2-.3h-.1v-.2l-.1-1.5-2.7-.1h-.2v-2.2zm8.5-23.7-1.8.9h-.1l-5.3-2-1.7 1.9-.1.1-.1-.1-.8-.6-.1-.1v-3.2l-.4-1-.1-.1h.1l4.2-4.7-.2-2-1.2-1.5-1.7.2-2.3 1.6h-.1l-2.1-.1-.3.8 1.5 1.4.1.1-.1.1-1.9 1.9-.9 1-.1 2.9v.1h-.1l-4.5-.1-1.8 1.8 1.1 1.2 1.3 1.6v.2l-.7.8-.1.1-1.5.6v.1l-.1-.1-1.9-1.4-1.6 2.3.3 1.6.9.7 3.9.7h.1l1.5 1.8h.1l.5 1.3.1 2.6v4.4l.2.5.9-2.4.1-.1 2.2-.3 1-3.7.1-.1h.1l1.1.1 1.3.6 1.5-1.3.1-1v-.9l.1-.2h.1l2.4.1h.1v.1l1.4 1.3 1.2-.2.1.1.8.9.7.6 1.2-1.3.9-1.2-1-.9-.1-.1V133h.1l3.9-1.6-.2-2.1zM206 84.7l1 .1.2-.7-.7-.8-.8.3zm3.3 5.3 1.2.5 1.3-.2-.5-1.9-1.6.8z"/><path class="st0" d="m212.2 91-1.5.1-.8 2.6-2.4-2.2-.7 2.3 2.6 2.9.2 2.4-4.8-4.2-.2-2.7 2-2.5.3-3.9-.8.3-.9 2.7-1.5 1.4-1.6.4-1.5 2.2.1 5.9-3.7 5.8.2 3.5h3.8l3 3.7v3.5l-2.1 2.6.6 1.2 1.7.9-3.2.8-.9-3.4 2.4-4.1-1.1-3.2-3.6-.5-2 1.9-.3 4.4-3.3 3.5-3.1 1.1-2.1 2.2-7-4.3v-2.1l4.7 2.2 2.5-1 3.9-2.5 2.7-5.4-.4-2.9 4.5-10.8.5-1.9-.5-2.5 3-2.8.6-4-2.3-3 2.4-.3-.4-2.9-2.3-.2-.2 2.1.5 1.3-1.5-.6-2.3 1.7-2.6 3.4-2.1 2-3.2.8-1.6 1.5 1.6 2.2-1.8 3.2-2.4.8-.1 1.1 2.2 2.2-.8 2.1.4 1.4.8 1.2-2.7 2.5-.9-1.4-.8-3.2-2.9-4.7-1.7 1.4 1 1.7v.2l-2 3.6.7 2.6.1.1h-.1l-1.2 2h-.1l-2.1.7-1.3 1.6h-.1l-5.1.3-2.7 2.1v.1h-1.7l-.2 4.4-2 2.9 1.3 2.7 4.9.4h.1l2.4 1.9v.1l.1 2.3.8.8 5.7.3h.1v.1l1.8 2.2v.1l.1 3.6 1 1.2v2.5h3.8l3.4 3.2 4.7 2h.1l1.7 2.9 3.1 1.9 3.1.3 2.6-1.9h.1l2.4 2.2 2.3-.1h.1l.1.1 1.8 2.6.9.1h.1l1.7 1.7 3.6-4.5.2-2.9v-.1l2.4-3.2-.5-2.6-2.7-2v-.2l.7-3.8-1.8-2.5h-.1l.6-5.3-2.2-2.9-.1-.1v-.1l.9-2.7-.9-2.1v-.1l.1-.1 2.9-.7 1.2-3.1-.6-3.7-3-.7-.1-.1-2.8-3.7v-.1l.6-2.2v-.1h.1l4.1-1.9.4-1.6-1.7-3.8.4-2.5v-.1h.1l1.8-.3-1.7-3.6zM150 179.9h2.1l1.7 2.9 1.4.2v-.1l.5-1.2 2.4-2.3.4-1.8h.1l1.4-1.7h.2l1.8.4.5-.8.3-1.3-.5-1.4-1.6-.6h-.1v-.1l-.2-.9v-.1l.8-.9.2-2.3v-.1l2.7-2.5.1-.1.1.1 1.5 1.5v.1l-.8 1.2 1 .2h.1l2.6 1.9 2.1-.3h.1l1.9 1.1 1.8.1 2.5-1.8-4.5-3.3v-.1l-2.2-4.3-1.6-3.6-1.2-.2v-.1h-.1l-2.6-1.1-1.4-1.2-.4 1v.1h-.1l-2.1-.1-.5.6-1.4.7v.1h-.1l-1-.3-.6.5-.1.1h-1.4l-1.7-.8-.7 1.4-.1.1-2.3.4-1.6 2.7h-.1l-4.2-.1-1.1 2.4v2.5h-.1l-1.1.3-.4 1.9 1 2.2.4 1.5 1.8.5v.1l1.6 1.5h.1v1.6l2.5 2.1v.1z"/><path class="st0" d="m130 177.3 4.2 1 2.4 1.5 1.4-1.1 2.1 1.1 7 1.3 2.6-1.1v-.1l-.2-1.3-2.4-2.1v-.1l-.1-1.6-1.6-1.4-1.8-.5v-.1h-.1l-.4-1.6-1-2.2v-.1l.4-1.9-2-1-1.4.8h-.2v-.1l-1.2-1.5-2.6-.9-3 .9.2.8v2.8h-.1l-4 3-.1 1.5 3 1.8h.1v.1z"/><path class="st0" d="m113.5 184.6.8-1.1 2.9-.2.2-2 1.3-.8 1.5.1 1.7 1.3 1-.9-1.2-2.1-.6-2.1 1.4-1.5 1.3-.4 1.9 2.1 4 .3v-.1l1.2-2-3-1.8h-.1v-.1l.1-1.6.1-.1 4-3v-2.5l-.3-1.9-1.1-1-.6.3v.1h-.1l-1-.3h-.1l-4.2-3.7-.8.2-.2 1.5-.9 1.6.1.9.9 1.2.1.1-.6 1.1-.8.5h-.1l-.1-.1-1.4-1.4-.6-.4-.9-.1-1 .5h-.1l-.9-.7v-.1l-.1-1.9-.7-1h-1l-1.8 1-.4 1.3 1 2.3.9.7 3.8 1.3.9-.5.7-.3h.1v.1l1.2 1.1.1.1-.2.1-.8.7-1.2.4-.5 1.6v.1h-.9l-1.2-.6-2.4 1.3-1.5 2.5-.2 1.5v.1h-.1l-1.7.4-.2 1.2-.2 1.3 2.9.9h.1l.6 1.4h.1l-.1.1-.3.9v.1l-1.1.8z"/><path class="st0" d="m143.3 130.5-.7 1.3-.6 1.2-2.4 3.2-3.6 3.5-3.1 1.4v1.4l1 1.9-.1.1-1.3 1.5-.2 2v.1l-.9 1.1h-.1l-2.8.2-.4 1.7v.1h-.1l-1.2.8-.1.1-.1-.1-1.1-1.3-1.6 2.5-.1.1-2.6.3-2.3 2.6.4 1.3 1 .8 2.6 1.1.8.2.9-.3h.1v.1l4.3 3.6.9.3.7-.4v-.1l.1.1 1.2 1.1v.1l.2.8 3-.9 2.7.9.1.1 1.1 1.5 1.5-.7v-.1l.1.1 2.1 1 1.1-.3-.1-2.3v-.1l1.2-2.5v-.1h.1l4.2.1 1.5-2.5-1.1-1.6v-.1l.2-1.6.4-2.8-2.9-1.8-.1-.1-.5-1.3v-.1l1.7-2-.3-1.7-.6-3v-.1l1.4-2-.1-2.2-1.6-3.9-2.7-1.6v-.1l-.5-1.8z"/><path class="st0" d="M161.9 114.2h-1.6l-2.4 2.1-2.1.1h-.2l-.7-1.1-3.4 3-.5 2-3.6 3.2-4 6.8.9.8v.1l.4 1.8 2.7 1.6h.1v.1l1.6 3.9.1 2.3v.1h-.1l-1.3 2 .5 2.9.4 1.8v.1h-.1l-1.6 2 .5 1.2 2.9 1.8.1.1-.1.1-.4 2.9-.1 1.5 1 1.5 2.3-.4.8-1.4v-.1h.1l1.8.8h1.2l.7-.5.1-.1 1 .3 1.3-.7.5-.6.1-.1 2.1.1.5-1.1v-.2l.2.1 1.4 1.4 2.6 1.1 1.3.3h.1v.1l1.7 3.6 2.1 4.3 4.6 3.4 2.5-1.5.3-1.5v-.1h.1l1.5-1h.1l1.8.2 1.5-5h.1v-.1l2.2-1.6.1-.1 2.4.7v.1l3.2 2.1h4.9v.1l3.4 2.4 4-2.3h.2l2.1 1.5 2.3-.3 2.6-1.1.5-1.2-3-1.7V155l-1.8-1.8h-1v-.1l-1.8-2.6-2.4.1-.1-.1-2.3-2.1-2.5 1.9-3.3-.3v-.1l-3.1-1.9h-.1l-1.7-2.9-4.7-2-3.4-3.1h-4v-.2l.1-2.4-1-1.3v-.1l-.2-3.6-1.7-2.1-5.6-.3h-.1v-.1l-.9-.8h-.1v-.1l-.1-2.4-2.2-1.7-5-.4h-.1v-.1l-1.4-2.9v-.1l2-2.9zM64.5 82.5l-.7.6-.4 1 .1 3.5v.1l-.1.1-2.6.8-.1 1.2v.1h-.2l-.8.1-.2.8v.1h-.1l-.4.4.9.9 1.7 1.2 3.2.8.1.1 1.1.9 3.1.3.2-1.2v-.1l.6-.4.1-.1.1.1 1.5 1v.1l.3 1.3 1.8 1.4 1.4-.1h.1l2.4 2.1.1-1-.4-1.3-1.1-1.2v-.2l1-1.5-.2-1.7-.9-1.9.2-1.3-.8-.1-.1-.1h-.1l-.2-.9h-1.6l-.1-.1-.4-.8-.1-.1.1-.1.4-.7-.1-1-1.2-.4-.4.4v.1h-.1l-.9-.1-.9-.8-1.3.2h-.1l-.1-.1-.8-1.3-.8-.5-1.6.8-.1.1-.1-.2z"/><path class="st0" d="m80.7 102.7 3 1.9H85l1.4 1.8h.1l-.1.1-.6 2.5 1.8 1.8 4.9.2h.1l3.3 2v.1l2.2 3.9 3.4 2 2.4-.6.1.1 1 1 1.7-1.7-1.5-1.4-.1-.1h.1l.3-1 .1-.1.1.1h2.1l2.4-1.5v-1.6l-1.6-.8h-.2l.1-.1.5-1.4-1.5-.5-.9.5h-.2v-.1l-1.2-3h-2.9l-.1-.1-1.8-2.1-1.7-1.1-1.7-1.6-4.9-5.5-.1-.1h.1l.3-2.8v-.1l1.9-2.1-1.2-.4H93v-2h-1.5l-1 1h-.1l-2.1-.1h-.1l-.9-1h-1l-1.3.4-2.2 1.7-1.5 3v.1h-.1l-2.4-.2-1.4.7-.9 1.5 1 1.1.5 1.4v.1l-.2 1.2h2.5v.1zm-16.6-27-1.4.1-2.4 1.8-1.3 1.9-2.6-.2-1.6 2.6-1.9.3v2L50.1 86l.2 2.6 1.1 1.4-1.3 1.6.3 1.2 1.8.5.4 1.9-.6 1h.1l1.2-.3h.1l.6.3 2.3-.4.9-1.4.5-2.1v-.1h.1l1.4-1.5.3-.9v-.1h.9l.2-1.2v-.1l.1-.1 2.5-.8V84l.4-1.1.9-.7.8-2.6-1.1-1.7v-.1z"/><path class="st0" d="m78.3 72-2.5.1-3.1 1.1-.1 2.5.3 1.1-.9.7-.7-1.7-1.2-.1-1.8-1.8-2.4 1.5-1.5.2.1 2.2 1.1 1.7v.2l-.9 2.6.4 1.3 1.5-.8h.1l1 .5.1.1.7 1.3 1.3-.2h.1v.1l.9.7.7.1.4-.5v-.1l.2.1 1.4.4.1.1.1 1.2-.1.1-.4.7.4.7 1.7.1.1.1.2.8.9.1.2.1v.1l-.3 1.4.9 1.8.2 1.6 1.2-.7h.1l2.3.2 1.4-3h.1l2.2-1.7.1-.1 1.4-.4h2l1-.8-1.9-2.5-1.2-.2h-.1v-.1l-.6-1.9-.7.1-.2 1.1v.2l-.1-.1-.7-.1v-.1l-.5-.8-.6.2-.1 1.4v.1h-.2l-.8-.2h-.1v-.1l-.5-1-2.3.1h-.1v-.1l-1-1.4h-2.3l-.6-.8-.1-.1.1-.1 3.8-4.6zm32.9-9.3.6-3.8.9 1.2-.4 2.7 1.1 2.4.3 4 1.6 2.4.4 2.4 5.8 3.5 3.6-.6 2.7-3.7.7-3.9-1.2-4.6.2-6.7-.8-2.5-1.8-3-.3-2.3.8-.5 1.1 1.5 1.1-.7-1-2-4-2.7-5.7-.5-1.1.8-2.8 1.6.1 2.3-2 3.1-3.8.1-1.3 1.6 2.8 3.7h.1v.1l-.5 2.2 2.3 1.2h.1z"/><path class="st0" d="M104.2 78.2 104 77l.3-1-1-1.4.9-1.6 2.7-3.5 2.4-.7 1.3-2.3.5-3.4-.5-.9-2.4-1.2h-.1v-.1l.5-2.3-2.7-3.6-3.2 4-1.7-.1-2.1 1.4h-1.5l-.5 1.5-.7 1.2-1.2.9.7 1.3-.9.8-2.7-.4-.8 2.6-.5 4-1.6.6-7.4-1-3.3.2.1 2.1 1.8-.3h.1l2.3.3h.1l1 1.3v.1l-.1 1.7v.1l-.8.9.1 1.9-.3 1.6v.1l-1.2.9-.3.9.4.9.6.2.1-1.3v-.1h.1l.8-.3h.1l.1.1.5.8.4.1.1-1.1v-.1h.1l1-.1h.1l.1.1.5 1.9 1.2.2.1.1 1.9 2.4.3-.7-.2-2.4.8-1.7 3.1-3.3.1-.1v.1l1.8.4h.1v.1l.6 1v.1l-.3 1.8-1.4 1.3-2.2 2.5-.6 2.2 1.5-.1h.2v2.1l1.1.4.9-.9.1-.1h1.1l.4-2 .1-.1 2-2.1-.5-.8-.6-1.1v-.2l.4-1.6.1-.1 2-2 .2-1v-.2h.1l1.4.4.8.2 1.1-1.2zm31.5 15.2-2.8 3.5 1 1.5v.2l-.6 1.1.4 1.9v.1h-.1l-1.7 1.1h-.2l-2.2-1.5-2.2.1h-.1v-.1l-.4-1.6-5.5-4.3-.6 1 1.5 2.5h.1v.1l-.5 2.1v.1l-1.4 1.3.6 1h.1v.1l.1 1.1v.1h-.2l-2.1.1-1.7 2.2-.1 1.4 2 .8.9-1v-.1l2-.6h.1l.1.1 1.1 2.4.1.1h-.1l-4.5 3.6-.1 2v.1l-1.6 1.2h-.1l-2-.8-1.4 1.1-4.1 4.7.4 1v3.1l.7.5 1.7-1.9.1-.1v.1l5.3 2 1.9-.9 1-2.5v-.1h.1l3.5.3h.1v.1l2.6 2.9 2.8 1.5 4 .4 1.6-.9h.1v.1l4.3 3.5 2.7.4 4.7-8.2v-.1h.1l3.5-3.1.6-2v-.1l3.6-3.1.1-.1.1.1.7 1.2 2-.1 2.3-2.1.1-.1h3.6l2.6-2.2h.1l5.1-.2 1.4-1.6 2.1-.7 1.2-1.9-.8-2.6v-.1l.9-1.7-1-.1-.6.9v.1h-1.3l-1.6 1.5h-.1l-1.9-.5-1.5 1.7v.1l-4.3.3h-.1l-18.5-13.2-1.8.5zm-28.3-20.3.6.6.8-.5-.3-.9-.6-.5-.4.6zm55.6 2 .9-.7v-1.5l-1.1-.3z"/><path class="st0" d="m178.4 97.6-1.5-2.7-3.7-4h-2.8l-.4 1.6-.1 2.5-2 1.2-1.1-.2-.8 1.1-1.4-1.1 1.7-1.5v-1.7h-5.4l-2.6-2-4 .4-1.4-1.9 2.4-.3 1.2-2.4-3.2-.8-1.5 1.8-.7-1.3-8.2-2-1.1 1-1.2-1.1-4.3 2.5-2.2-2.1.6-2-.6-1.9 2.6-.9 2.5 1.7 1.2-1.9-.1-3.6-3.3-3.6-.9 3.6-4.5 2.9-.4 2.2-2.1 2 .8 4.4 2.4 3.6 2.1.2h.1v.1l1.2 1.7 8 .8 1.8-.5v-.1l.1.1 18.5 13.2 4.2-.3 1.4-1.7.1-.1.1.1 1.9.4 1.5-1.4.1-.1h1.2l.7-1h.1l1.2.2.9-1.7-1-1.8v-.1h.1z"/><path class="st0" d="m171.8 89.8-1.7.2-1.3-2.2.4-2 2.1-.5.6 2.2zm-25.7-10.3 1.3 1.7 3.1.1.3-1.1-.2-1.7-1.6-1.8-2.3.8zm22.5 2.3.7-6.7.6-2.5 2.2-2.3 2.6-.9 1-1.5-.6-1.8 1.9 1.2 1.8-.2.4-1.3 1.1.1.1-1.3 1.4.5.3-1.3 1 1.1.8-1 .3-1.6 1.5 1 .9-.8 2 .4 1.7-1.9 12.8-.3 3-1.6.3-2.3-1.3-1.6-3 .8-.5 1.2-5.3-.5-2.2-1.9-2 1.1-2.1-.9-2.5 1.7h-2.1l-1 .9-1.4-1.5-.7 3.1-1.6.1-.2 1.2-3.9 1.2-1.4-.6-.9 1 1.1 1.2-1.5 1.5-2.5-1.1-.4 1.9-1.8-.1-.1 1.5-2.5 1.3-1.6-.5-1.8 1.3-.1 1.9 1.7 1.7.1 2.5-1.6 1.6 1.2 2.7 1.4.2.1 1.2 1.6.4zm-39.8 1.5-2.2 2-1.1-2 1.5-.2-1.8-3.5-2.9.4-2.8-1-3.5.6-2 4.8-1.4-.8-2-4.7.3-3.7-3.3.4-.9 3.1 1.4 1.7-1.3 1.8-2.2-1.2-.3-2.5-.1.1-1.1 1.1-.1.1-1-.2-1.2-.3-.2.9v.1l-2 2-.4 1.6.6 1 .5.9.1.1-.1.1-2.1 2.2-.4 2.1-.1.1h-1.2l-.9 1-1.9 2.2-.4 2.6 4.9 5.5 1.6 1.6 1.8 1.1 1.8 2.1 2.9.1h.1v.1l1.2 2.9.9-.4v-.1l.1.1 1.6.5.2.1-.1.1-.5 1.4 1.5.7.1.1v1.7l1.6-.3h.2l1.2 1.6.1.1.1 1.9 1.3-1.1h.2l1.9.8 1.5-1.1.1-2v-.1l4.5-3.5-1.2-2.2-1.7.6-.9 1.1h-.2l-2.2-.9-.1-.1v-.1l.1-1.4v-.1l1.8-2.3v-.1h.1l2.1-.1-.1-.9-.6-1.1-.1-.1h.1l1.3-1.4.5-2-1.6-2.6v-.1l.8-1.1.1-.1h.1l5.6 4.4.1.1.3 1.5 2.1-.1h.1l2.2 1.5 1.6-.9-.4-1.9v-.1l.6-1.1-1-1.5v-.2l2.8-3.6-1.1-1.6-2.1-.3h-.1l-2.4-3.6-.1-.1zm74.7-51 1 .9 1.2-1.1-.6-1-.9.3zm2.1.7.7.6 1.2-.6.3-1.5-.9-.2zm3.3-.1 1.2 1.1 2.4-1.2-.4-1.4-1.7-.7-1.5 1.2zm2.6-2.6 1 .5.7-.8-.9-.8zm4.6-2.9.3 1.1 1-.4-.4-1.4zm-3.5-2.8.5.6.8-.6-1.1-1.1-.6.5zm-3.2.7.2.9 1.2.8.7-1.1-.7-1.3zm-2.2 1 2.2 1.9-.3 1.7-2.2-.7-1.5-1.7zm6.1 6.3.3 1.3 2.5-.1.9-1.6-.8-1.4-1 1.5-1.6-.4zm-6.6 2.9.6.9.6-.7-.6-1zm-6.1-6.4 1 1.7 1.2-1.1-.6-1.4zm2.9-.5.2 1 .6-.5-.5-1.1zm-1.1-5.5.8 1 .7-.7-1.2-1zm-6.8-2.1.3 1.4 1.1.8 1.5-.1.9.7.6-.7-1.2-1-1 .3zm.3 3.5-.1 1.2 1.1 1.1 1.1 1.4.3-.6-.3-1.3 1.5-.4 1.9.6 1.3-1.2-1.1-1.2-1-.4-1 .8-1.3.1-.8.4zm2.4 4.6-.3.8.9.5.1-1.1zM26.4 65.3l5.1 11 3.1-1.7.3-6-1.5-2.3-.7 2.7-1.5-.9-1.2-3.6-1.5 1zm17.8 80.3-.1.8-2.3-.1-.9 1.4-1.2.1-1.4 2.6-2.4.9-1.7-2.6-4-.5-1.9 1.9 4 2.4-1.2.8-2.1-1.2-1.2.9.7 1.4h1.6v.1l1.8 2.2h.1l-.1.1-1.3 2.5 1.7 2.1.1.1-.1.1-.4.8-.1 1.7 1 1.2 1-1.1h.1l1.6.6.5-1 .1-.1.1.1 1.2.5h.1v2l1.5.7h.1v1.9l.7 1.3 1.9-.2.6-1.1h3l1.8-2-.1-1-1.6-.2h-.1l-.1-.1-.1-1.4-1.5-2.2v-.1l.8-3-1-1.5-.1-.1h.1l2.2-1.3.1-.1.1.1.8.8 1.5-.1.9-1.7-.3-3v-.1l2.3-1.5-.3-3.7-1.9-.1-1.3.9v.1l-.1-.1-1.5-.9z"/><path class="st0" d="m59.8 167.8 2.5-.9.4-1.9 2.1-1.2 2.3-.6.9-.3-.1-3.1-1.4-.3h-.1v-.1l-.7-1-.1-1.9-.9.4-1.1-.1h-.2l.1-.1v-1.5h.1l1.1-1.3v-1.7l-2.5-2.3-1.4-.3v-.1h-.1l-1-1.3v-.1l-.1-1.8-2.1-.7-.1-.1-.8-1.7-1.1.3h-.1l-2.2-.3-.2 1.5v.1l-2.1 1.2.4 3.8v.1L49 152l.3 3-.1.1-.9 1.8v.1h-.1l-1.7.1h-.1l-.7-.8-2 1.1 1 1.5v.1l-.8 2.9 1.4 2.1 3.7.4.4-1.1v-.1l.1.1 1.3.1h.1v.1l.4 1.8 1.4.2 1.3-.8h.1l4.4.9h.1v.1z"/><path class="st0" d="m48.9 184.8 2.3.9 6.3-.2-.5-2.4 1.5-.3 1.2-6.7-1-1.5-1.6-.3.2-1.3 2-1.8-1.7-2.4.8-.4 1.1-.5-1.1-2-4.3-.9-1.2.7.8 2.1v.1l-.8 3.9 1 1.8v.1l-1 3 .4 1.8v.2h-.2l-1.8-.2-1 .4h-.1v-.1l-.7-.9-.6.7 1 2.3-.1.1-1.3 1.1-1.1.6z"/><path class="st0" d="M44 185.8h2.3l2.2-1-1.5-2.1v-.1l.1-.1 1.3-.6 1.2-1-1-2.3v-.1l.1-.1.7-.9.1-.1.1.1.7 1.1.9-.4h.1l1.7.2-.4-1.7v-.1l1-2.9-1-1.8v-.1l.8-3.9-.8-2.1-1.4-.2h-.1l-.1-.1-.3-1.9-1.1-.1-.4 1.1v.1h-.1l-3.7-.4.1 1.1 1.7.2h.1v.2l.1 1.1v.1h-.1l-1.8 2.1h-3l-.6 1.1-.1.1-2 .2h-.1v-.1l-.9-1.3v-1.9l-1.5-.7v-2l-1.1-.4-.6.9v.1h-.1l-1.6-.6-.9 1 1 1.3 1.1-.2h.1l.7 1 1.4.4h.1v.1l.6 1.7 1.5 2.4v.1l-.4 2.5 1.5 2.7v.1l.6 2.2-.1 2.2 2.3 2.4z"/><path class="st0" d="m29.5 193.6-.8.8.2 2.2 2.1 3-.2 3.1-.3 1.5 1.8 2.3.9-.4.5-.8 1.2.6 1.2.3 1.4-.9v-3.9l1-5.6 3.5-3.5.3-3.5-.3-1.6 1.7-1.3-.5-1.4-2.3-2.2-.8.6H40l-2.5-.1-1.3 1.1.5.9v.1l-.1.1-1.1.7 1.5 2.2 1.6.2v.1l.1.1.5 1.9v.1l-.1.1-1.2.5h-.1l-1.3-.1-1.6 3.1-.1.2-.1-.1-1.2-1.1-.8.9h-.1z"/><path class="st0" d="m28.9 190.8.5 1.4.2 1.1 3 .2.7-.8.1-.1h.1l1.3 1.1 1.5-3.1.1-.1h.1l1.3.1 1.1-.4-.5-1.8-1.6-.3-2.2-3.1-1.6-.1-.8.4.9 3.4v.1H33z"/><path class="st0" d="M27.9 189.3v.6l.8.6 4.1-1.9-.9-3.2-.7.3-.7 2.2-.1.1-1 .8h-.1z"/><path class="st0" d="m24.7 184.6.2 2.6 2.9 1.4.1.4 1.3-.4 1-.8.7-2.2v-.1h.1l1.7-.8-1.3-1-.5.8-.1.1h-.1l-3.4-.8-2.5.8z"/><path class="st0" d="m22.5 179.5 1.6 1.7.1 2.4.5.7 2.6-.8h.1l3.3.8 1-1.8-.4-1.5h-1.6l-.1-.1-3.1-2.8h-2.1z"/><path class="st0" d="m18.7 172.3 1.8 3.1v1.8l1.9 2.1 1.8-1.5h.1l2.2.1-.1-2.3v-.1l1.2-.7-1.7-3.1-.5 1.1-.1.1h-.1l-1.9-.2-.1-.1-1.1-1.5z"/><path class="st0" d="m15.2 152.7.1 2.6-.8 1 .4 1.1 1.2.9-.1 1.9.7 3-.2 2.8-.5 4.6.6.8 1.2-.5.8 1.3 3.5-1.2h.1l.1.1 1.1 1.5 1.8.2 1.3-2.6v-.1l1.4-.6-.5-.8v-.2l.8-1.5-.9-.8-.1-.1.1-.1 1-1 .1-.9v-.1h.1l1.1-.5.1-.1.1.1.8 1.3 1-.8.1-1.7.4-.8-1.7-2.1-.1-.1v-.1l1.3-2.5-1.7-2.1h-1.6v-.1l-.9-1.8-2.7-2.5-.4 3.6-1.5-.8-2.8.1-1 1.4-2.1-3.5zm2.8 16.4-.1-1.8v-.2h.2l1.8-.2v-1.3h.2l2.1-1.5-1.3-.8-1.7-2v-.4l.2-1.6v-.4l.2.1.2.1 1.5.5 1.2 1.8h1.7v.2l.1 1.6 1.1 1v.3l-.1 2.3-1.7 2.2-.2.3-.2.3v-.6l-.2-1.9-2.6 2.9-.1.1-.1.1H20l-2-.9h-.2v-.1z"/><path class="st0" d="m31.7 164.3-1.1.9-.1.1-.1-.2-.8-1.3-.9.4-.1.9-1 1 .9.7v.2l-.8 1.5.6.8.1.2h-.2l-1.5.6-.6 1.3 1.8 3.3v.2h-.1l-1.2.8.1 2.2 3.1 2.8h1.7v.1l.5 1.6v.2l-.5.8 1.5 1.2 1.7.1h.1v.1l.5.7 1.1-.7-.5-.9v-.1l.1-.1 1.4-1.1.1-.1v.1h2.4l.9-.6.1-2.2-.5-2.2-1.6-2.7v-.1l.4-2.5-1.4-2.4-.6-1.6-1.4-.4-.1-.1-.7-.9-1 .2h-.1v-.1zm-13.5 3 .1 1.8 2 .9 2.8-3.1.2-.2v.3l.3 2.2 1.7-2.2.1-2.3-1.2-1h-.1v-.1l-.1-1.7h-1.8L21 160l-1.5-.6-.2 1.6 1.7 2 1.5.9.2.1-.2.1-2.2 1.7v1.3h-.2zM251.4 222l6.3 2.5 5.9 1.4 1.2 4.6 4.2 2.2h3l4.3-2.6 3.2 1.1 3.5-.3.9 1.6 2 .1.6-2.4v-.1h.1l1.9-1-2.1-2.2-.1-.1.2-.1 1.9-1.6-.7-2.3-.1-.1h4l2.3-2h.1l2.1.3 3.9-5.1v-.1l2.5-.2.8-1.2 2.2-.9 1.6-2 .2-2.1-1.7-1.2h-.1v-2.3l3.8-2.8 1.2-2.9.1-.1 3.2-1.1-.2-2.6-2-1.8-2.2-.3v-.1h-.1l-1.8-5.6-1.2-1-.1-.1.1-.1 1.2-1.6-.2-1.6-1.4 1.5h-.1l-1.1-.1-.7 2.5v.1h-.1l-6.2 1.6-.1.1v-.1l-1-1.4h-1.5l-1.3-.8-.8 1.8-3 1h-.1l-1.5-.5-.4 1.7v.1h-.1l-2.9.4.2 1.5 1.8 1.5.1.1-.1.1-1.5 1.8-.3 2.8 1 2.3.2-.5.6-3.8 1-1.8h.1l1.3.1h.1v.1l.3 1.5-.6 3.4.2 3.4.5 1.8v.1l-.7 1.7v.1l-1.1 1-.3.6.4 1.1v.1l-.5 1.2-.1.1-1.1.2-.1 1.3v.1l-1.5 2.3v.1l-2.2.7-1.4 1.9-.1.1h-.1l-1.6-.2-.4 2.5v.1l-1.3 1.3v.1l-3.9 1.7-.5 1.8-.1.1-2.5.8-.2.1v-.2l-.4-1.4-2.6-.6h-.1v-.1l-.3-1.9-1.8-2.4h-2.5l-5.2-4v-.1l-1.6-2.1-2.5 1.8H252l.1.3v.1l-.8.8.3 1.1v.1l-.1.1-1.1 1.2z"/><path class="st0" d="m215.3 232.8 9.6-3.7 3.4-.2.6.9 5.2 1.1.3 2.4 2 .9 5.4.6 2.2.3 1.1 1.1 1.7-.6 1.6-1.4 1.1-2.7-1.8-2.3.2-3.4 1.2-.4v-1.5l1.6-.1.5-1.7-1.1-2 .1-.1 1.1-1.3-.3-1.1v-.1l.8-.8-.2-.8-2.2.1h-.1l-5.6-3.9-.4 1.5v.1h-.1l-6.8.6-.5 1.8v.1h-.1l-1.3.4.1 1.3v.1l-1.9 1.2-.1 1.2v.1h-.1l-1.2.3-2.3 1.9h-.1l-5.3-.7-3.2-2.3-1.5-.1-1 2.6v.1h-.1l-3.8.2.3 2.6 2.2 4 .1.1h-.1l-1.6 1.1z"/><path class="st0" d="m194.5 225.2.3 2.6 2.4 1.4.1 2.5 2.4.5 1 1.2 2.7-1.4.5 1.9 1.7 2.5 2.7.3.8-1.8 3.6-.1 2.4-1.8-.4-2.6v-.1l.1-.1 1.5-1.1-2.2-3.9-.2-2.5-1.9 1.5-.1.1-.1-.1-1.8-2.3v-.2l.6-2.7-1-1.1-3-.1h-.1l-1.9.4h-.2l-1.6-1.2-.1 1.3-1.5 2.3-.1.1h-.1l-2.7-.3-2.2.7-.9 1.2 1.4.7h.1v.1l.4 1.6v.1h-.1zm16.2-6.4 1.7-.6 1.2-.6 2.1-2.1-.5-1.3.4-1.5-.5-2v-.2l1.4-1.7.7-2.1-2-.7h-.1v-.1l-.4-1.3v-.2l1.6-2.1-.9-2.1.4-1.6v-.1h.1l2.1-1 1-1-2.2-4.3v-.1l.3-1.5-2.4 1h-.2l-3.1-1.4-3.5.5-1.3 1.6v.1h-3.7l-.1 9.8 1.3-.2h.1v.1l.2 2 1.9 2 .6 1.7 1.7 1.2.1.1-.1.1-1.3 1.5 1.1 1.2.1.1v.1l-.5 2v.1h-.1l-1.3.8-.1 2.4 3 .1h.1v.1z"/><path class="st0" d="m175.6 202.9 3.6 17.4 2-.3 1.3-2 1.3.6.4 2 4.1 2.2 3.2-1.2 1.7.8 1.2 2.5 2.4-.3-.3-1.4-1.5-.7-.1-.1.1-.1 1-1.4h.1l2.2-.8h.1l2.6.2 1.5-2.1.1-1.5v-.2l.2.1 1.7 1.4 1.7-.4.2-2.5v-.1l1.4-.9.4-1.8-1.1-1.2v-.2l1.3-1.5-1.6-1.2-.1-.1-.6-1.7-1.8-2h-.1l-.2-1.9-1.3.1-1.7 1.6h-.1l-3.2-.3-1 .7-.1.1v-.1l-1-.7-2.8 2.7-.1.1-.1-.1-2.2-2.1v-.1l-.4-1.6-1.8-2.4-7.3 2.6h-.1l-1.6-.7-.7.5h-.2l-1.2-.7z"/><path class="st0" d="m170 195.6 3.9.1-1.6 1.6 3.2 5.4 1.6-.9.1-.1v.1l1.2.7.7-.5h.1l1.6.7 7.4-2.6h.1l.1.1 1.8 2.5h.1l.3 1.6 2.1 2 2.8-2.7.1-.1v.1l1.1.8.9-.8h.1l3.2.3 1.6-1.5.1-9.8h-1.3l-1.8 1.5-.1.1-.1-.1-.8-1.1h-.1l.1-.1.2-3.7-5.4-.1h-.1v-.1l-1-1.8-2.8.1h-.1v-.1l-.5-2-1.8-2.3-9.4-4.5v3.1l-.1.1-1.7 1 .5 2v.2h-.2l-2.3-.2-1.7.8-1.1 1.9.2 5.3v.1z"/><path class="st0" d="m155.5 183.1 1 .3.1 1.9-.7.8.5 1.3-1.5 1.7.3 1.3 3.2.7.2 1.8h1.5l1.2.3 1.2 1.4-1.7 1.4v1.2l1.7-.5 1.5.8 1.4-.3 1.1-1 3.2-.6 1.2-3-.2-5.4v-.1l1.1-1.9h.1v-.1l1.9-.7 2.2.1-.5-1.9-.1-.1.1-.1 1.8-1v-7.6l-1.3-1.3v-.2l1.4-1.7-.1-1-2.5 1.7-.1.1-2-.1-1.9-1.1-2.1.3h-.1l-2.7-2-1.2-.2h-.2l.1-.2.9-1.2-1.3-1.3-2.5 2.4-.3 2.3v.1l-.7.8.2.8 1.5.6h.1l.6 1.5v.1l-.3 1.4h-.1l-.5.9-.1.1-1.9-.4-1.4 1.5-.4 1.8-2.5 2.4z"/><path class="st0" d="m207.6 163.3-2-1.4-4.1 2.3-.1.1v-.1l-3.4-2.5-4.9-.1-3.2-2.1-2.3-.7-2.1 1.6-1.6 5.1v.1h-.1l-1.9-.2-1.4.9-.3 1.6h-.1l-2.6 1.5.2 1.2v.1l-.1.1-1.3 1.6 1.3 1.3v4.4l9.6 4.6 1.8 2.3v.1l.5 1.9 2.8-.1h.1v.1l1 1.8 5.4.1h.2v.2l-.3 3.8.7.9 1.7-1.5h5.3l1.4-1.6h.1l3.6-.5h.1l3 1.3 2.5-1 .2-2.6v-.1l2.6-2 .3-1.2-2.2-.7h-.1l-1.6-1.6v-.1l-.3-2.1v-.1l.1-.1 2.8-2.4.1-1.5-1.9-.2-.1-.1-2.1-4.3-7.2-1.1h-.1v-2.2l1-1.2zm9.3 35.2-.9.4-.3 1.5.8 2.1v.2l-1.6 2 .4 1.2 2 .7h.1v.2l-.8 2.2v.1l-1.3 1.7.5 1.9v.1l-.4 1.4.5 1.4v.1l-2.2 2.1v.1l-1.3.6-1.7.6-.6 2.6 1.7 2.1 2-1.5.2-.2v.1l3.7-.2.9-2.6.1-.1.1.1 1.5.1 1.1-2.3v-.1h.1l1.9-.7.6-1.3v-1.6h.1l1.8-1-.1-1.5-.8-2.2v-.1l-.4-2.1-1.6-2.4v-.2l.7-1.5-1.2-.8-2.1.3H218v-.1zm-3.5-110.8 1.3 1.6.9-.4-.3-2.3-.9-.4zm3.6-10.5.6.8.7-.7-.3-1.2-.9.3zm24.4-40.9 2.7.5-.6-2.1-2 .1zm2.3 5.3 1.5-2.1-.4-1.8 1.5-1 1.5-1.4 1.7 1.4.9 2.7.6 1.2-1.6.8v1.4l-3.8 1.8-1.9-1.8zm-1.4 2.3 2.9 1.1-.4 1.4-1.4.7-1.9-1.3-.3-1.3zm2.6 4.6 1.3-3.2 3.6-1.8.6 2.5 1-.3.1-1 1.6 1.5-.1 2.1-1.2 2 1 1.2-.3 1.8-1.3.7-2.6-1.8-2.4-2-1.4-.7zm9.4 1.8-.4 4.2-1.6 2.9.6 2.2 2.7-2.1 2.7-.2 1.5-1.4.1-3.4-1.5-1.9-1.3 1.3-.7-.8.1-2zm7.6 6.1.3 1.1 2 .5-.1-.8-2-1.3zm-15.5 8.4 1 .8.8-.5-.5-1.2zm-9.5-1.6 1.4.8.1-1.1-.9-1-.7.6zm8.4 4.5.5.6.6-.6-.7-.8zm-22.8 14.1 1 .9.7-.6-.2-1.1-.9-.3zM225 83l.6.4.4-.7-.7-.7zm1.5-2.8.6.4.3-.7-.8-.6zm1.1-1.5.6.5.6-.9-1-.8-.5.4zm-4.7-5.4.7.5 1.1-.6-.6-1.1-.9-.3-.9.8zm2.3-3.7-.3.6.6.8.6-.6.1-.8zM223.5 43l-.2.9.9.9h1.3l-.1-1.1-.9-1.1zm5.6-6.8 1.2.4 1.3-.3-.8-1.7-.9-.8-.7.7-.2 1zm48.3 109.6-.9 1-2.1.4-1.9.9.1 2.2.6 1.5v.2l-1.1 2.4 1.1 1.8.2 2.6-1.7 3.3-2.8 1.8 1.1 1.8v.2l-1.2 1.6.6 2.1 2.4.8h.1v.1l.3 1.6v.2l-1.8 1.9-.1 1.3 1.1.3h.1v.1l.6 1.7v.1l-.1.1-1.3 1.3-.6 2v.2l-.2-.1-2.5-1.5-1.2-2.6-2.3 1.1-.3 2.2-5.1 5.5.2 2.6v.1h-.1l-1.4.6-.1.1-.1-.1-1.9-4.2-1.3 1.8v.1h-.1l-5.3.2-2.1 3.8 2.3 3.7v.2l-.4 2.1v.1h-.1l-2.3.3-1.3 2.5-.4 6.8v.1h-.1l-2.2-.2-1.6.7v1.3l3.8 3.4 5.8 4 2.3-.1h.1v.1l.1.4h1.5l2.6-1.9.1-.1.1.1 1.7 2.3 5 4h2.6v.1l1.9 2.4.2 1.9 2.6.5h.1v.1l.4 1.4 2.3-.8.5-1.6h-2.5v-.1l-.5-1.1v-.1l.1-.1 1.1-.7 1.6-.2 3.1-2.2 1.1-1.7 2.3-2.1.5-1.6 1.4-2.4 1.7-2.6 1.4-3.9 1.1-3.2-1.3-2.7.3-2.8 1.5-1.8-1.8-1.5v-.1l-.3-1.7v-.1h.1l3-.4.4-1.8v-.2l.1.1 1.6.6 2.8-.9.8-1.8.1-.1.1.1 1.4.8h1.5v.1l1 1.4 6-1.6.7-2.6v-.1h.1l1.2.2 1.5-1.7.2-.2v.3l.2 1.9 3.7.6 2.1-1.5.1-2.8-2.3-1.6h-.1v-.1l-.2-3.5v-.1h.1l1.3-1 3.1-.1-2.9-6.6-1.6-1.1-2.8 1.3-.1.1v-.1l-1-3-4.4-1.8-2.2.4-3.4 7.4-2.3 2.7-.1.1-.1-.1-1.7-1.7-1.1 1.9v.1h-.1l-3.2.1-2.1 1.6-.1.1-.1-.1-2.1-2.2v-.2l.4-5.7 1.9-4.4-2.4-.7h-.1v-.1l-1.2-2.6v-.1l.9-3.6-2-1.1h-.1v-.1l.1-3.6-1.5-2.8-1.2.8-1.7-.1h-.1v-2h.1l1.3-.8zm-13.5 68.8-.3-1.4v-.1h.1l1.3-.4-.6-2v-.1l.1-.1 1.6-.6h.1l.1.1 1.2 2.5 3.1-1.8.1-.1.1.1 1.1 1.5.9.8 1.2-.4h1.7v.1l.8 1.3v.1l-.1.1-3.2 4.1-.1.1-.1-.1-2-1.4-2.4.2-1.4-.9-1.7-1.2-1.7-.1z"/><path class="st1" d="m263.9 213.3.3 1.2 1.6.1h.1v.1l1.7 1.2 1.4.8 2.3-.2h.1l.1.1 1.8 1.3 3.1-4-.7-1.1h-1.6l-1.1.4-.1.1h-.1l-.1-.1-.9-.8-.1-.1-1-1.4-3 1.8-.1.1h-.1l-.1-.1-.1-.1-1.1-2.4-1.4.5.5 1.9.1.1v.2h-.2z"/><path class="st0" d="m286.1 232.6 1.3.1 1.3 2.4 9.8.9 6.6-4 2.1-.1.7-2.2 3.2-3 4.5-.2 1.3 1.3 1.9-1.7 7.9 1.3 1.1-3.1 2.7-1.9-1.1-2.8 1.2-7.5 2-2-1.4-3.6-2.8-.3 2-3.7 3.6-2.5-3.2-4.8v-.2l1.1-1.5-1.9-1.1h-.1v-.1l-.3-3.8-1.9.4h-.1v-.1l-1.2-2.1-2.5 1.4-.1.1-.1-.1-1.6-1.6-.1-.1.1-.1.9-1.3-3.1-2.1-4-7.4-3.2.1-1.2.9.2 3.4 2.3 1.6h.1v.1l-.1 2.9v.1h-.1l-2.3 1.6-3.7-.6-1 1.5 1.1 1 1.8 5.5 2.2.4 2.1 1.9v.1l.2 2.7v.1h-.1l-3.3 1.1-1.3 2.9-3.7 2.8v1.9l1.7 1.1.1.1v.1l-.2 2.3-1.7 2.1-2.1.9-.8 1.2v.1h-.1l-2.5.2-3.9 5.1v.1h-.1l-2.1-.3-2.3 1.9h-3.6l.7 2.2v.1l-.1.1-1.9 1.6 2.1 2.2.1.1-.2.1-2 1.1zm16.9-8.7.7-1.8v-.2h.2l3.9-.5 1.1-2.3.1-.2.1-.2.1.1.1.1.9.8.9-2.2v-.2h.2l2-.4 2.4 1.5.1.1.1.1v.2l-.3 1.6v.2h-.2l-1.1.3 2 1.8.1.1.1.1-.2.1-.2.1-8.1 3.9h-.4l-4.7-2.9-.1-.1-.1-.1v-.1z"/><path class="st1" d="m304 222.2-.7 1.8 4.7 2.9 8.1-3.9-2.1-2-.2-.2h.2l1.4-.4.3-1.5-2.3-1.5-2 .4-1 2.4-.1.2-.1-.2-1-.9-1.2 2.3v.1h-.1zm-29.1-76.5-.1.1-.1-.1-1.5-1.2h-3.8l.1-.2.2-2v-.1l2.2-2.6.6-1.7-1.4-.9-.1-.1V135l-1.2-1.4v-.1l.5-2.6-1.4-1.1-.1-.1.1-.1 2.1-2.3-.7-10-2.5-3.8 1.2-.6 3-2.5h.1l1.8.2.6-3.1.9-1.3.2-1.8.1-.1 3.6-2.9-1.5-1.8-.1-.1v-3l-3.2-4.5v-.1l-.4-2.3-1-1.3h-.1v-.1l.2-1.3-2 1-2.2 1.7-3.1.9-1.2 2.1.1-3 6.2-6.4 3.4-6.2 1.6-5.5-4.8-5.5-4.5-.1-1.6 2.2-1.7.3 1.3-3.8-3.7-.4 1.2-1.8-2.2-1.8-2 .7-3.2 4.8.7 2.8-3.4.3v.9l1.3 1.8-2.5-.5-1.2 1.2-2.9-.5-.3-1.3-4.1.1.1 2.3-4.9.7-3.2 2.6-2.6.1-1.8 1.6-.9 3.4 1.6 2.8-2.4.6-6.3-1.1h-3.7l-1.1 2-.2 5.2 2.4 2.3 1.1 2.6h-3.2l-2.8-5.2-2 .1v.3l1.8 3.8v.1l-.1.1-1.9.3-.5 2.3 1.8 3.7v.1l-.4 1.8h-.1v.1l-4.2 1.8-.5 2.1 2.7 3.6 3.1.8h.1v.1l.6 3.8-.1.5-1.1 2.7-.1.1-2.8.8.8 2v.1l-.9 2.6 2.3 2.9v.1l-.6 5.3 1.8 2.5h.1l-.1.1-.6 3.8 2.6 2h.1v.1l.4 2.7h.1l-.1.1-2.3 3.3-.3 2.9v.1l-3.7 4.6v3.6l3 1.7.1.1v.1l-.5 1.4h-.1l-2.7 1.2-2.3.3 1 3.5v.1l-1 1.2v1.8l7.1 1.1h.1v.1l2.1 4.3 2 .3h.1v.1l-.2 1.6v.1l-2.8 2.5.2 2 1.6 1.6 2.3.7h.2l-.1.2-.4 1.4-2.6 2-.1 2.6v.1l-.4 1.6 2.3 4.3v.1l-.1.1-1.1 1.1-1 .5 1.1 3.3h2.2l2.1-.3h.1v.1l1.4.8.1.1-.1.1-.7 1.6 1.6 2.4v.1l.4 2.1.7 2.2v.1l.2 1.6v.1h-.1l-1.8 1v1.5l-.7 1.3v.1l-2 .7-1 2.3 3.1 2.2 5.2.6 2.2-1.8h.1l1.2-.3V219h.1l1.8-1.2-.1-1.3v-.1h.1l1.4-.4.4-1.8v-.1h.1l6.9-.6.3-1.6-3.8-3.4v-1.7l1.7-.8.1-.1 2.1.3.5-6.7v-.1l1.4-2.6.1-.1 2.3-.3.4-1.9-2.4-3.7v-.1l2.2-4v-.1h.1l5.3-.2 1.4-1.9.1-.2.2.2 1.9 4.4 1.2-.5-.2-2.5v-.1l5.1-5.6.3-2.2v-.1l2.7-1.2.1.1 1.2 2.7 2.3 1.4.6-1.9v-.1l1.3-1.3-.5-1.5-1.2-.3-.1-.1v-.1l.1-1.5v-.1l1.8-1.8-.3-1.5-2.4-.8h-.1l-.7-2.3v-.1l1.2-1.7-1.1-1.8v-.1l.1-.1 2.9-1.8 1.7-3.2-.2-2.6-1.2-1.8v-.1l1.1-2.4-.5-1.5-.1-2.3v-.1l2.1-.9 2.1-.5 1-1-.8-1zm175-3.4-.6-7.5-.8-3.4-2.5-2.5.3-3.6 1.2-1.1-4.2-4.9.1-3.5 1.7-1.9-.4-1.9-3.6-1.1-3.6-6.5.9-.6 1.1 1.6 1.8-1.1-2.8-2.6-1.5.8-2.4-1.6v.1l-1.2-2.9h-2.5l-.3 1.7-1.6-.2-5.1-10.1.3-3.2 2.1-.5-1.5-6 3.2 2.6v-7.2l2.6-2.6 3.8-.1-2.2-5.3-1-11.4-2.5.7v.1l-.1-.1-1.8-.9-3.2 9.1v.1h-.1l-4.1-.1-3.7 1.1h-.1l-.1-.1-1.2-3.3-5 .3-.9 1.6h-.1l-3.4.9-.6 1.8-.1.1h-.1l-1.8.2-.6 2-.1.1-2.2.7.4 2.2 3.1 4.5 1.9.4h.1v.1l1.4 3.5 2.2-.2h.1L410 82h.1v.1l.4 2.1 2 1.1 1.4-1.3-3.8-4.5.9-3 3.7-1.3-2 2.9.5 2.3 2.9 2 1.3.1v2.1l1.2.2-1.2 6 1.4 2.3.4 6.9 1.1 4.5 1.4 4.5-1.7 1.8.6 1.7-.9 1.2 2.3 2.7.4 4.2 3.1 3.6 3.8 4.3zm-310.3-10.9-4.3-3.5-1.5.9h-.1l-4.2-.5-2.8-1.5-2.6-2.9-3.3-.3-1 2.4 2.4 3.1v.1l.1 2.2v.2l-3.9 1.6v1.3l1 .9.1.1-1.2 1.6-1 1.2-1.5 3.7v.1l-1.2 1.2-.8 2.1-1.3 1.5h-.1l-1.1-.1-.1 2.8 1.3-.1h.1v2.2l2.8.2h.1v.1l.1 1.5 1.2.3h.1v.1l.2.8.1 1.1.4.6 1.1-.3 2.3-2.7v-.1h.1l2.6-.3 1.6-2.6.1-.1.2.1 1.2 1.3 1-.7.4-1.8.1-.1h.1l2.9-.2.7-.9.2-2.1h.1l1.3-1.5-1-1.8v-.1l.1-1.5v-.1h.1l3-1.4 3.6-3.5 2.4-3.2.4-1zm-125.5 19 1.6-1.9-3.6-4.7 2.1-6.1-1.5-1.3-1.4 1-5.3-3.7-.6 1.1.2 4.3-2 2.1.5 3 3.5-.2 3.9 4.9z"/></svg>